#!OML:ASF I:\Actors\actors\Patient Classification 2\Patient 1\Session 1\actor1.ASF
:FULLY-SPECIFIED
:DEGREES
223
root 0.0329923 18.7603 4.87396 11.7691 -7.49542 -4.10931
lowerback 22.1732 0.914275 -13.7798
upperback 5.64498 -1.97122 -1.05913
thorax -5.65066 -0.866798 7.20181
lowerneck -13.3219 7.84162 12.5723
upperneck 26.1657 8.39784 -2.13576
head 11.4007 4.71904 -1.69757
rclavicle 7.4743e-014 3.65764e-014
rhumerus -14.9684 27.957 -91.7696
rradius 109.612
rwrist -62.9952
rhand -38.9313 -35.3818
rfingers 7.12502
rthumb -11.9374 -65.0214
lclavicle 7.4743e-014 3.65764e-014
lhumerus 4.65389 -22.1514 59.0593
lradius 52.099
lwrist 7.25191
lhand -20.5975 -58.6998
lfingers 7.12502
lthumb 5.76297 -28.7982
rfemur -9.36639 8.78312 13.3661
rtibia 3.97569e-016
rfoot -11.8608 -13.9725
rtoes -6.12836
lfemur -21.9471 1.73548 -11.5507
ltibia 30.7158
lfoot -21.1106 11.2429
ltoes -54.5617
224
root 0.00945931 18.7615 4.88147 11.6158 -7.68691 -4.03096
lowerback 22.0447 0.936641 -13.6791
upperback 5.53481 -1.91505 -1.12328
thorax -5.72811 -0.829917 7.05738
lowerneck -13.2241 7.7372 12.6038
upperneck 26.2227 8.26356 -2.15712
head 11.3947 4.66212 -1.73455
rclavicle -6.36111e-015 1.27222e-014
rhumerus -15.2569 28.4757 -92.0862
rradius 109.991
rwrist -63.382
rhand -35.5691 -36.4832
rfingers 7.12502
rthumb -8.69403 -66.2842
lclavicle -6.36111e-015 1.27222e-014
lhumerus 4.51112 -23.4791 57.6534
lradius 53.1196
lwrist 8.00515
lhand -20.6396 -58.8356
lfingers 7.12502
lthumb 5.72229 -28.9329
rfemur -9.21045 8.98772 13.3516
rtibia -8.74653e-015
rfoot -11.9137 -13.9513
rtoes -6.37789
lfemur -21.618 1.85342 -11.5987
ltibia 30.5328
lfoot -21.0933 11.3647
ltoes -54.6104
225
root -0.0157469 18.7626 4.88657 11.4347 -7.90552 -3.92834
lowerback 21.8939 1.0042 -13.6749
upperback 5.48204 -1.80973 -1.13732
thorax -5.73274 -0.776875 7.00923
lowerneck -13.2411 7.61359 12.5904
upperneck 26.3007 8.09435 -2.16734
head 11.413 4.58583 -1.7616
rclavicle -1.74931e-014 -9.54166e-015
rhumerus -15.2168 29.1093 -92.339
rradius 110.203
rwrist -63.7296
rhand -32.8836 -37.5123
rfingers 7.12502
rthumb -6.10184 -67.4044
lclavicle -1.74931e-014 -9.54166e-015
lhumerus 4.53507 -24.2775 56.121
lradius 53.9912
lwrist 8.52405
lhand -20.6386 -58.8077
lfingers 7.12502
lthumb 5.72327 -28.905
rfemur -9.04666 9.2174 13.3152
rtibia 1.86858e-014
rfoot -11.9343 -13.9794
rtoes -6.75728
lfemur -21.2783 1.94877 -11.6702
ltibia 30.3726
lfoot -21.063 11.5633
ltoes -54.7802
226
root -0.0399191 18.7622 4.88931 11.2383 -8.12826 -3.78884
lowerback 21.7124 1.09265 -13.7011
upperback 5.47834 -1.6734 -1.13465
thorax -5.67071 -0.7158 6.98743
lowerneck -13.3469 7.49139 12.6398
upperneck 26.4404 7.91389 -2.23114
head 11.4775 4.50452 -1.81668
rclavicle 1.43125e-014 -7.95139e-015
rhumerus -14.8746 29.8037 -92.5231
rradius 110.244
rwrist -63.9445
rhand -31.5933 -38.1911
rfingers 7.12502
rthumb -4.85601 -68.1154
lclavicle 1.43125e-014 -7.95139e-015
lhumerus 4.7341 -24.6906 54.45
lradius 54.6566
lwrist 8.97463
lhand -20.658 -58.5749
lfingers 7.12502
lthumb 5.70455 -28.6717
rfemur -8.88376 9.44216 13.2291
rtibia -3.97569e-015
rfoot -11.9893 -13.9796
rtoes -6.74518
lfemur -20.9327 1.95722 -11.7759
ltibia 30.2291
lfoot -21.0976 11.8036
ltoes -54.9246
227
root -0.06179 18.7615 4.89087 11.0263 -8.37944 -3.68609
lowerback 21.599 1.17501 -13.6639
upperback 5.47509 -1.54166 -1.12286
thorax -5.64513 -0.654917 6.94364
lowerneck -13.4245 7.38907 12.7209
upperneck 26.6049 7.7679 -2.3337
head 11.5523 4.43781 -1.88696
rclavicle 9.54166e-015 6.36111e-015
rhumerus -14.3754 30.5973 -92.7245
rradius 110.173
rwrist -64.1694
rhand -31.4197 -38.2959
rfingers 7.12502
rthumb -4.68839 -68.224
lclavicle 9.54166e-015 6.36111e-015
lhumerus 5.02038 -24.672 52.7419
lradius 54.9697
lwrist 9.32681
lhand -20.7471 -58.4793
lfingers 7.12502
lthumb 5.61854 -28.5738
rfemur -8.7083 9.70077 13.1584
rtibia -2.46493e-014
rfoot -12.0876 -13.8856
rtoes -6.1956
lfemur -20.56 1.98957 -11.8561
ltibia 30.0988
lfoot -21.1572 12.0391
ltoes -55.0534
228
root -0.0812946 18.761 4.89183 10.7877 -8.66293 -3.60893
lowerback 21.5867 1.25864 -13.5705
upperback 5.46716 -1.41364 -1.11697
thorax -5.67896 -0.591957 6.86539
lowerneck -13.4397 7.28749 12.7488
upperneck 26.7335 7.62485 -2.36706
head 11.5954 4.37531 -1.92532
rclavicle 2.38542e-014 1.74931e-014
rhumerus -13.8045 31.4276 -92.991
rradius 109.97
rwrist -64.4133
rhand -31.849 -38.247
rfingers 7.12502
rthumb -5.10288 -68.1656
lclavicle 2.38542e-014 1.74931e-014
lhumerus 5.3495 -24.1911 51.1052
lradius 54.9487
lwrist 9.55123
lhand -20.6805 -58.4074
lfingers 7.12502
lthumb 5.68279 -28.5036
rfemur -8.51396 9.99815 13.1043
rtibia 2.26615e-014
rfoot -12.0941 -13.7932
rtoes -5.96338
lfemur -20.1543 2.15445 -11.9334
ltibia 29.9694
lfoot -21.1616 12.2245
ltoes -55.2602
229
root -0.0999453 18.7602 4.89052 10.5623 -8.93453 -3.57624
lowerback 21.6218 1.34313 -13.4074
upperback 5.4757 -1.27444 -1.0949
thorax -5.72322 -0.524338 6.76373
lowerneck -13.4688 7.17898 12.7152
upperneck 26.7918 7.46837 -2.34106
head 11.607 4.30655 -1.93387
rclavicle 1.98785e-014 9.54166e-015
rhumerus -13.0775 32.2335 -93.2624
rradius 109.533
rwrist -64.5625
rhand -32.0032 -38.0905
rfingers 7.12502
rthumb -5.25178 -68.0054
lclavicle 1.98785e-014 9.54166e-015
lhumerus 5.85893 -23.3998 49.5151
lradius 54.5318
lwrist 9.58446
lhand -20.5524 -58.2166
lfingers 7.12502
lthumb 5.80647 -28.3162
rfemur -8.34103 10.2942 13.1097
rtibia 1.31198e-014
rfoot -12.0707 -13.7554
rtoes -5.98805
lfemur -19.763 2.35653 -11.9516
ltibia 29.826
lfoot -21.153 12.3286
ltoes -55.3586
230
root -0.120076 18.7606 4.88665 10.2586 -9.23979 -3.5649
lowerback 21.7988 1.45886 -13.2888
upperback 5.514 -1.12248 -1.04067
thorax -5.80738 -0.449201 6.72207
lowerneck -13.5521 7.07705 12.6083
upperneck 26.8678 7.32715 -2.29686
head 11.6329 4.23925 -1.9199
rclavicle 1.35174e-014 -3.81667e-014
rhumerus -12.1338 33.017 -93.5214
rradius 108.82
rwrist -64.6222
rhand -31.7375 -38.048
rfingers 7.12502
rthumb -4.99523 -67.9691
lclavicle 1.35174e-014 -3.81667e-014
lhumerus 6.48006 -22.3067 48.0318
lradius 53.6975
lwrist 9.24569
lhand -20.6037 -58.0269
lfingers 7.12502
lthumb 5.75696 -28.1251
rfemur -8.08559 10.6403 13.1644
rtibia -2.98177e-014
rfoot -12.1016 -13.7513
rtoes -5.96586
lfemur -19.2678 2.51716 -11.9241
ltibia 29.6719
lfoot -21.1934 12.4461
ltoes -55.3265
231
root -0.142382 18.762 4.8761 9.93591 -9.43905 -3.49923
lowerback 22.0766 1.55113 -13.2245
upperback 5.57769 -1.02473 -0.975201
thorax -5.90134 -0.400157 6.73856
lowerneck -13.696 6.97805 12.4729
upperneck 26.9389 7.19784 -2.28249
head 11.6695 4.17027 -1.90883
rclavicle 1.98785e-014 5.24792e-014
rhumerus -11.0035 33.7583 -93.7458
rradius 107.895
rwrist -64.6315
rhand -31.7979 -37.9755
rfingers 7.12502
rthumb -5.05358 -67.8952
lclavicle 1.98785e-014 5.24792e-014
lhumerus 7.14399 -20.9155 46.7022
lradius 52.5733
lwrist 8.60879
lhand -20.5486 -58.1584
lfingers 7.12502
lthumb 5.81019 -28.2581
rfemur -7.80002 10.8755 13.1987
rtibia -4.85035e-014
rfoot -12.0905 -13.779
rtoes -6.18515
lfemur -18.8102 2.56309 -11.9265
ltibia 29.5295
lfoot -21.2257 12.5867
ltoes -55.3058
